<svg width="38" height="38" viewBox="0 0 38 38" fill="none" xmlns="http://www.w3.org/2000/svg">
<path d="M34.5154 16.5464C34.2602 14.3311 32.8029 12.5222 30.8355 11.7468C31.892 10.713 32.5843 9.27318 32.5843 7.6855C32.5843 4.54719 30.0702 2 26.9735 2C24.6053 2 22.5647 3.51377 21.7634 5.65512C21.0711 5.3229 20.3061 5.13825 19.5045 5.13825C18.7029 5.13825 17.9379 5.3229 17.209 5.65512C16.4072 3.51377 14.4035 2 11.9987 2C8.9016 2 6.42416 4.54752 6.42416 7.6855C6.42416 9.27291 7.07985 10.713 8.1366 11.7468C6.16924 12.5222 4.71165 14.3311 4.45673 16.5464L4.01934 20.5706C3.87371 21.6044 4.56576 22.6013 5.58591 22.7859C6.05964 22.8967 6.56972 22.9706 7.04318 23.0445L7.51691 31.6098C7.58985 32.9022 8.64633 33.8619 9.88505 33.8619H14.0749C14.3665 33.8619 14.658 33.788 14.9129 33.6773L14.9858 34.711C15.0588 35.9663 16.1152 37 17.354 37H21.5805C22.8558 37 23.876 36.0031 23.9486 34.711L24.0216 33.6773C24.2767 33.788 24.568 33.8619 24.8595 33.8619H29.086C30.3614 33.8619 31.3815 32.865 31.4542 31.6098L31.9642 23.0445C32.4743 22.9706 32.9481 22.8598 33.4215 22.7491C34.4417 22.5276 35.0977 21.5675 34.9881 20.5338L34.5154 16.5464ZM26.9733 4.03065C28.9773 4.03065 30.5805 5.69197 30.5805 7.68576C30.5805 9.67929 28.9773 11.3409 26.9733 11.3409C26.281 11.3409 25.6253 11.1194 25.0787 10.7501C25.0423 9.23633 24.4593 7.87037 23.4755 6.87347C23.8399 5.24894 25.2972 4.03059 26.9733 4.03059V4.03065ZM23.1113 10.8239C23.1113 12.8174 21.5081 14.479 19.5042 14.479C17.5368 14.479 15.897 12.8545 15.897 10.8239C15.897 8.83034 17.5003 7.16876 19.5042 7.16876C21.4715 7.16876 23.1113 8.79329 23.1113 10.8239ZM11.9986 4.03065C13.7111 4.03065 15.132 5.249 15.4965 6.87353C14.5493 7.87043 13.93 9.23639 13.93 10.7502C13.3835 11.1195 12.7276 11.3409 11.9989 11.3409C9.99491 11.3409 8.39177 9.67962 8.39177 7.68582C8.42812 5.65517 10.031 4.03071 11.9987 4.03071L11.9986 4.03065ZM14.5127 31.5358C14.5127 31.7205 14.3305 31.9051 14.1119 31.9051H9.92177C9.7032 31.9051 9.55731 31.7205 9.52097 31.5358L8.97455 22.1213C8.93821 21.6413 8.57375 21.2352 8.10005 21.1983C7.37141 21.0876 6.64278 20.9768 5.95045 20.829L6.42418 16.8048C6.64275 14.8481 8.31886 13.3343 10.2499 13.3343H13.6749C13.9664 13.3343 14.2579 13.3711 14.5494 13.445C14.8409 13.9619 15.1687 14.4788 15.6059 14.8849C13.6748 15.6604 12.2175 17.4692 11.926 19.6845L11.4886 23.709C11.3793 24.7795 12.035 25.7025 13.0552 25.9243C13.5289 26.035 14.039 26.1089 14.5491 26.1829L14.6947 28.6565L14.5127 31.5358ZM22.5284 25.2963L22.0183 34.6739C22.0183 34.8954 21.8361 35.0432 21.6175 35.0432L17.391 35.043C17.1724 35.043 17.0266 34.8954 16.9902 34.6737L16.4438 25.2591C16.4075 24.7791 16.043 24.373 15.5693 24.3362C14.8407 24.2254 14.112 24.1147 13.4197 23.9669L13.8934 19.9427C14.112 17.9491 15.7881 16.4722 17.7555 16.4722H21.1804C23.1478 16.4722 24.7875 17.9488 25.0425 19.9427L25.5162 24.004C24.8239 24.1515 24.0952 24.2625 23.3666 24.3733C22.9292 24.4104 22.5648 24.8162 22.5284 25.2963L22.5284 25.2963ZM30.9084 21.1982C30.4347 21.2722 30.0705 21.6412 30.0339 22.1212L29.4875 31.5357C29.4875 31.7204 29.3053 31.9051 29.1231 31.9051H24.8965C24.7143 31.9051 24.5321 31.7204 24.5321 31.5357L24.3499 28.6929L24.4955 26.2192C25.0056 26.1453 25.4793 26.0346 25.9894 25.9607C27.0096 25.7392 27.6655 24.7791 27.556 23.7454L27.0822 19.7212C26.8271 17.5059 25.3698 15.697 23.4024 14.9216C23.8395 14.5154 24.1676 14.0354 24.4589 13.4817C24.7504 13.4078 25.0419 13.371 25.3334 13.371H28.7583C30.7257 13.371 32.4018 14.8476 32.6203 16.8415L33.0941 20.9028C32.3293 20.9767 31.637 21.0874 30.9084 21.1982L30.9084 21.1982Z" fill="white"/>
</svg>
