<svg width="32" height="32" viewBox="0 0 32 32" fill="none" xmlns="http://www.w3.org/2000/svg">
<path d="M24.01 16.6301C24.01 17.7901 24.43 18.9001 25.16 19.8001C25.72 20.4901 26.05 21.3901 26 22.3601C25.91 24.3001 24.35 25.8801 22.41 25.9801C20.59 26.0801 19.02 24.8801 18.55 23.2301H15.48C15.99 26.5201 18.85 29.0301 22.3 28.9901C25.93 28.9401 28.91 26.0001 29 22.3701C29.0355 21.0297 28.6738 19.7087 27.9602 18.5734C27.2467 17.4381 26.2132 16.5393 24.99 15.9901C24.8836 15.9436 24.7673 15.9244 24.6516 15.9341C24.5359 15.9438 24.4244 15.9821 24.3272 16.0456C24.23 16.109 24.1501 16.1957 24.0948 16.2977C24.0394 16.3998 24.0102 16.514 24.01 16.6301V16.6301Z" fill="#A56953"/>
<path d="M26.05 2L23.13 9.87C22.7934 10.7911 22.1826 11.5869 21.3797 12.1502C20.5769 12.7134 19.6207 13.017 18.64 13.02H13.01V14.52H18.64C21.27 14.52 23.64 12.86 24.54 10.39L27.65 2H26.05V2Z" fill="#00A6ED"/>
<path d="M7.01002 18V23.81C7.01002 23.95 6.99002 24.09 6.96002 24.22L5.20502 29.673C5.19288 29.7105 5.18978 29.7504 5.19599 29.7893C5.20219 29.8283 5.21753 29.8652 5.24074 29.8971C5.26395 29.929 5.29438 29.955 5.32954 29.9728C5.36469 29.9907 5.40358 30 5.44302 30H7.91802C7.97089 30 8.02241 29.9833 8.06517 29.9522C8.10793 29.9211 8.13974 29.8773 8.15602 29.827L9.81003 24.74C9.94003 24.26 10.01 23.75 10.01 23.25V18H7.01002Z" fill="#D3883E"/>
<path d="M14.0101 12.0001L18.2801 19.1601L23.8911 22.0001C23.9701 22.4991 24.0101 23.0071 24.0101 23.5201V25.8601C24.0101 28.1501 22.1601 30.0001 19.8701 30.0001H11.5101C11.2341 30.0001 11.0041 29.7731 11.0721 29.5051C11.1833 29.0753 11.4338 28.6944 11.7845 28.4221C12.1351 28.1498 12.5661 28.0014 13.0101 28.0001V26.8401C13.0101 25.8171 13.4101 24.8871 14.0641 24.1981L12.0101 23.0001V23.6201C12.0101 24.1201 11.9401 24.6301 11.8101 25.1101L10.2171 29.6651C10.1829 29.763 10.1191 29.8478 10.0345 29.9078C9.94993 29.9678 9.84879 30.0001 9.74509 30.0001H7.80109C7.7214 30.0001 7.64286 29.9811 7.572 29.9447C7.50114 29.9082 7.44003 29.8553 7.39375 29.7905C7.34746 29.7256 7.31736 29.6506 7.30594 29.5717C7.29452 29.4929 7.30212 29.4124 7.32809 29.3371L8.97009 24.5701C9.00009 24.4401 9.02009 24.3001 9.02009 24.1601V20.8001C7.85009 20.3601 7.02009 19.2401 7.02009 17.9201L7.01009 14.4001C7.01009 14.1801 6.82009 14.0001 6.60009 14.0001H5.99009C3.78009 14.0001 2.99009 12.2001 3.00009 9.99008V9.72008C3.00009 9.32008 4.10009 9.00008 4.50009 9.00008H5.51009C5.83009 9.00008 6.12009 8.84008 6.29009 8.58008L7.10009 7.35008C7.37214 6.93536 7.74308 6.59483 8.1795 6.35917C8.61592 6.1235 9.10411 6.0001 9.60009 6.00008H11.0401L11.0101 3.60008C11.0101 3.15008 11.5101 2.86008 11.8901 3.10008C13.1901 3.93008 14.0101 5.41008 14.0101 6.98008V12.0001V12.0001Z" fill="#F3AD61"/>
<path d="M14.5 12.2939V13.7499C14.5 13.9489 14.421 14.1396 14.2803 14.2803C14.1397 14.4209 13.9489 14.4999 13.75 14.4999H13C12.8674 14.4999 12.7402 14.5526 12.6464 14.6464C12.5527 14.7402 12.5 14.8673 12.5 14.9999V18.9999C12.5 19.1326 12.5527 19.2597 12.6464 19.3535C12.7402 19.4473 12.8674 19.4999 13 19.4999H13.75C13.9489 19.4999 14.1397 19.579 14.2803 19.7196C14.421 19.8603 14.5 20.051 14.5 20.2499V20.9999C14.5 21.1326 14.5527 21.2597 14.6464 21.3535C14.7402 21.4473 14.8674 21.4999 15 21.4999H23.799C23.5227 20.189 22.9787 18.9493 22.2011 17.8584C21.4235 16.7674 20.4291 15.8488 19.28 15.1599L14.5 12.2939Z" fill="#F8312F"/>
<path d="M13 14C12.7705 13.9999 12.5479 14.0788 12.3696 14.2233C12.1914 14.3679 12.0683 14.5694 12.021 14.794C12.0136 14.8423 12.0099 14.8911 12.01 14.94V16H7V18H12.01V19.06C12.01 19.11 12.014 19.158 12.021 19.206C12.0683 19.4306 12.1914 19.6321 12.3696 19.7767C12.5479 19.9212 12.7705 20.0001 13 20H13.75C13.881 20 13.989 20.1 14 20.229C14.0064 20.2555 14.0097 20.2827 14.01 20.31V21.06C14.01 21.11 14.014 21.158 14.021 21.206C14.0683 21.4306 14.1914 21.6321 14.3696 21.7767C14.5479 21.9212 14.7705 22.0001 15 22H23.89C23.8377 21.6632 23.7676 21.3294 23.68 21H20.01V15.65C19.78 15.47 19.53 15.31 19.28 15.16L19.01 15V21H15V20.25C15 19.56 14.44 19 13.75 19H13V15H13.75C14.44 15 15 14.44 15 13.75V12.594L14.01 12V13.69C14.0103 13.7173 14.0069 13.7446 14 13.771C13.9947 13.8336 13.9661 13.8919 13.9197 13.9344C13.8734 13.9768 13.8128 14.0002 13.75 14H13V14Z" fill="#636363"/>
<path d="M15.5101 18.1399C15.6598 18.1399 15.8081 18.1104 15.9464 18.0531C16.0847 17.9958 16.2104 17.9118 16.3162 17.806C16.4221 17.7001 16.506 17.5744 16.5633 17.4361C16.6206 17.2978 16.6501 17.1496 16.6501 16.9999C16.6501 16.8502 16.6206 16.7019 16.5633 16.5636C16.506 16.4253 16.4221 16.2996 16.3162 16.1938C16.2104 16.0879 16.0847 16.0039 15.9464 15.9466C15.8081 15.8894 15.6598 15.8599 15.5101 15.8599C15.2078 15.8599 14.9178 15.98 14.704 16.1938C14.4902 16.4076 14.3701 16.6975 14.3701 16.9999C14.3701 17.3022 14.4902 17.5922 14.704 17.806C14.9178 18.0198 15.2078 18.1399 15.5101 18.1399V18.1399Z" fill="#FBB8AB"/>
<path d="M6.01004 10.07C6.01004 9.48 5.53004 9 4.95004 9H2.71004C2.32004 9.01 2.00004 9.32 2.00004 9.72V9.99C1.9978 10.5155 2.09933 11.0364 2.29881 11.5226C2.49828 12.0088 2.79178 12.4509 3.16247 12.8234C3.53316 13.196 3.97375 13.4917 4.45897 13.6936C4.94418 13.8955 5.46449 13.9996 5.99004 14H6.01004V10.07Z" fill="#A56953"/>
<path d="M2.75 10.5H3.25C3.44891 10.5 3.63968 10.421 3.78033 10.2803C3.92098 10.1397 4 9.94891 4 9.75C4 9.55109 3.92098 9.36032 3.78033 9.21967C3.63968 9.07902 3.44891 9 3.25 9H2.75C2.34 9 2 9.34 2 9.75C2 10.16 2.34 10.5 2.75 10.5ZM8.01 10.28C8.01 10.56 8.23 10.78 8.51 10.78C8.79 10.78 9.01 10.56 9.01 10.29V9.72C9.01 9.44 8.79 9.22 8.51 9.22C8.23 9.22 8.01 9.44 8.01 9.72V10.28Z" fill="#212121"/>
</svg>
