<svg width="32" height="32" viewBox="0 0 32 32" fill="none" xmlns="http://www.w3.org/2000/svg">
<path d="M16.406 5.86581C13.72 5.86581 12.614 8.38281 12.564 10.6878H11.656C9.7811 10.6879 7.9569 11.2965 6.4575 12.4221C4.95809 13.5477 3.86447 15.1295 3.34098 16.9298C3.07691 16.8579 2.79523 16.8914 2.55541 17.0233C2.31558 17.1551 2.13639 17.375 2.05567 17.6366C1.97494 17.8981 1.999 18.1807 2.12277 18.4248C2.24653 18.6689 2.46032 18.8554 2.71898 18.9448C2.47351 19.0274 2.26701 19.1974 2.13881 19.4225C2.0106 19.6475 1.96966 19.9119 2.02378 20.1651C2.07789 20.4184 2.22328 20.6429 2.43226 20.7959C2.64123 20.9489 2.89919 21.0197 3.15698 20.9948C3.54101 22.9673 4.59905 24.7448 6.1498 26.0228C7.70055 27.3008 9.64748 27.9997 11.657 27.9998H13.44C13.476 28.9648 13.95 29.9968 15.071 29.9968H17.276C17.382 30.0148 17.584 29.9508 17.541 29.5468C17.498 29.1398 17.31 28.3108 16.308 27.9998H16.344C18.4375 27.9997 20.46 27.241 22.0371 25.8643C23.6142 24.4876 24.6391 22.5861 24.922 20.5118V24.6878C24.922 26.9378 29.844 29.3128 29.844 27.1248V22.6248C29.844 21.4198 27.805 19.3648 26.54 19.3438C27.805 19.3228 29.844 17.2678 29.844 16.0618V11.5618C29.844 9.37481 24.922 11.7498 24.922 13.9998V18.1758C24.6747 16.366 23.8617 14.6806 22.5991 13.3606C21.3366 12.0405 19.689 11.1533 17.892 10.8258C21.509 10.5498 22.101 8.04981 22.219 6.92581C22.319 5.97581 21.844 5.82281 21.594 5.86581H16.406V5.86581Z" fill="#00A6ED"/>
<path d="M11.726 13.8036C11.8112 13.7021 11.9332 13.6386 12.0652 13.6269C12.1972 13.6153 12.3284 13.6566 12.43 13.7416C15.48 16.2966 15.641 20.7906 12.473 24.1396C12.4279 24.1874 12.3738 24.2257 12.3139 24.2526C12.2539 24.2794 12.1893 24.2942 12.1236 24.296C12.058 24.2979 11.9926 24.2868 11.9313 24.2634C11.8699 24.24 11.8137 24.2047 11.766 24.1596C11.7183 24.1145 11.6799 24.0604 11.653 24.0005C11.6262 23.9406 11.6114 23.8759 11.6096 23.8103C11.6077 23.7446 11.6188 23.6792 11.6422 23.6179C11.6656 23.5565 11.7009 23.5004 11.746 23.4526C14.578 20.4586 14.333 16.6406 11.788 14.5076C11.6865 14.4224 11.6229 14.3005 11.6113 14.1685C11.5997 14.0364 11.6409 13.9052 11.726 13.8036V13.8036Z" fill="#0074BA"/>
<path d="M9.0779 17.4996C9.08123 17.5818 9.06792 17.6637 9.03879 17.7406C9.00966 17.8174 8.9653 17.8876 8.90838 17.9469C8.85145 18.0061 8.78314 18.0533 8.70753 18.0855C8.63192 18.1177 8.55058 18.1343 8.4684 18.1343C8.38621 18.1343 8.30488 18.1177 8.22927 18.0855C8.15366 18.0533 8.08535 18.0061 8.02842 17.9469C7.97149 17.8876 7.92713 17.8174 7.898 17.7406C7.86887 17.6637 7.85557 17.5818 7.8589 17.4996C7.8589 17.3379 7.92317 17.1827 8.03756 17.0683C8.15196 16.9539 8.30712 16.8896 8.4689 16.8896C8.63068 16.8896 8.78584 16.9539 8.90023 17.0683C9.01463 17.1827 9.0789 17.3379 9.0789 17.4996H9.0779Z" fill="#1C1C1C"/>
</svg>
