<svg width="32" height="32" viewBox="0 0 32 32" fill="none" xmlns="http://www.w3.org/2000/svg">
<path d="M11.04 2.00618C12.3005 1.94476 13.5404 2.34268 14.5298 3.12608C15.5192 3.90949 16.1908 5.0252 16.42 6.26618L18.136 14.6322L15.57 19.6372L19.609 21.8122L19.62 21.8672V21.7872L27.27 21.0572C27.64 21.0272 27.96 21.3172 27.95 21.6872V23.8772C27.95 25.5972 26.56 26.9972 24.83 26.9972H16.953L16.21 27.6522L15.467 26.9962H14.17C13.907 26.9962 13.647 26.9862 13.39 26.9682L12.505 27.4322L11.957 26.7612C7.403 25.7732 4 21.8032 4 17.0462C4 14.8262 4.76 12.7262 6.06 11.0362C6.52 10.4562 6.64 9.67618 6.39 8.97618C6.17 8.35618 6.06 7.66618 6.09 6.95618C6.14541 5.66114 6.68472 4.43403 7.60128 3.51747C8.51785 2.6009 9.74496 2.06159 11.04 2.00618V2.00618Z" fill="#F14524"/>
<path d="M8.8701 7.88598C8.8701 8.35276 8.68467 8.80042 8.35461 9.13048C8.02454 9.46055 7.57688 9.64598 7.1101 9.64598C6.64332 9.64598 6.19565 9.46055 5.86559 9.13048C5.53553 8.80042 5.3501 8.35276 5.3501 7.88598C5.3501 7.4192 5.53553 6.97153 5.86559 6.64147C6.19565 6.3114 6.64332 6.12598 7.1101 6.12598C7.57688 6.12598 8.02454 6.3114 8.35461 6.64147C8.68467 6.97153 8.8701 7.4192 8.8701 7.88598V7.88598ZM11.4601 28.496L11.9501 26.759C12.4201 26.861 12.9001 26.931 13.3921 26.968L12.9601 28.496H14.2101C14.6201 28.496 14.9601 28.836 14.9601 29.246C14.9601 29.656 14.6201 29.996 14.2101 29.996H8.7101C8.51119 29.996 8.32042 29.917 8.17977 29.7763C8.03912 29.6357 7.9601 29.4449 7.9601 29.246C7.9601 29.0471 8.03912 28.8563 8.17977 28.7156C8.32042 28.575 8.51119 28.496 8.7101 28.496H11.4601Z" fill="#FF822D"/>
<path d="M8.83988 7.54595L6.02988 8.82595C5.91328 8.87959 5.81453 8.96559 5.74539 9.07373C5.67625 9.18187 5.63963 9.30759 5.63988 9.43595V9.67595C5.63988 9.95595 5.31988 10.1159 5.09988 9.95595C4.76085 9.71762 4.49014 9.39466 4.31469 9.01921C4.13925 8.64376 4.06519 8.22891 4.09988 7.81595C4.19988 6.62595 5.17988 5.67595 6.36988 5.62595C6.94316 5.59775 7.50755 5.77594 7.96071 6.12819C8.41387 6.48044 8.72578 6.98344 8.83988 7.54595ZM10.3719 14.5279C10.555 13.6375 11.0399 12.8375 11.7446 12.2632C12.4494 11.6889 13.3308 11.3755 14.2399 11.3759C16.1199 11.3759 17.7299 12.6859 18.1099 14.5259L20.0089 23.7959H19.7999V23.8059C17.5859 23.5099 14.8579 23.0589 13.2629 21.6539C11.3609 19.9769 10.7629 17.1539 10.3719 14.5279ZM15.4599 26.9959V28.4959H12.7099C12.511 28.4959 12.3202 28.575 12.1796 28.7156C12.0389 28.8563 11.9599 29.047 11.9599 29.2459C11.9599 29.4449 12.0389 29.6356 12.1796 29.7763C12.3202 29.9169 12.511 29.9959 12.7099 29.9959H18.2099C18.6199 29.9959 18.9599 29.6559 18.9599 29.2459C18.9599 28.8359 18.6199 28.4959 18.2099 28.4959H16.9599V26.9959H15.4599Z" fill="#FFB02E"/>
<path d="M19.8 23.8061C14.94 23.1561 11.09 19.3461 10.37 14.5161C10.34 14.6461 10.32 14.7861 10.31 14.9161C10.27 15.2961 10.25 15.6761 10.25 16.0561C10.25 21.6461 14.41 26.2661 19.8 26.9861C20.25 26.9861 20.58 26.5761 20.49 26.1361L20.01 23.7961H19.8V23.8061Z" fill="#00A6ED"/>
<path d="M11.32 8.64C11.6247 8.64 11.9264 8.57999 12.2078 8.4634C12.4893 8.34681 12.7451 8.17592 12.9605 7.96049C13.1759 7.74506 13.3468 7.4893 13.4634 7.20783C13.58 6.92635 13.64 6.62467 13.64 6.32C13.64 6.01533 13.58 5.71365 13.4634 5.43217C13.3468 5.1507 13.1759 4.89494 12.9605 4.67951C12.7451 4.46408 12.4893 4.29319 12.2078 4.1766C11.9264 4.06001 11.6247 4 11.32 4C10.7047 4 10.1146 4.24443 9.67951 4.67951C9.24443 5.1146 9 5.7047 9 6.32C9 6.9353 9.24443 7.5254 9.67951 7.96049C10.1146 8.39557 10.7047 8.64 11.32 8.64V8.64Z" fill="#E6E6E6"/>
<path d="M11.32 7.36027C11.5959 7.36027 11.8604 7.2507 12.0554 7.05566C12.2505 6.86063 12.36 6.5961 12.36 6.32027C12.36 6.04445 12.2505 5.77992 12.0554 5.58488C11.8604 5.38984 11.5959 5.28027 11.32 5.28027C11.0442 5.28027 10.7797 5.38984 10.5846 5.58488C10.3896 5.77992 10.28 6.04445 10.28 6.32027C10.28 6.5961 10.3896 6.86063 10.5846 7.05566C10.7797 7.2507 11.0442 7.36027 11.32 7.36027V7.36027Z" fill="#212121"/>
</svg>
