<svg width="32" height="32" viewBox="0 0 32 32" fill="none" xmlns="http://www.w3.org/2000/svg">
<path d="M14.9 30.0001H17.03C17.27 30.0001 17.45 29.7701 17.39 29.5501L15.5 21.6001H12.5L14.41 29.6201C14.47 29.8401 14.67 30.0001 14.9 30.0001ZM20.78 30.0001H18.65C18.41 30.0001 18.23 29.7701 18.29 29.5501L20.18 21.6001H23.18L21.27 29.6201C21.21 29.8401 21.01 30.0001 20.78 30.0001V30.0001Z" fill="#D3883E"/>
<path d="M21.41 3.17997C21.94 3.05997 22.5 2.98997 23.07 2.99997C26.85 3.03997 29.95 6.11997 30 9.89997C30.0145 10.9149 29.808 11.9209 29.3947 12.848C28.9815 13.7751 28.3715 14.6012 27.607 15.269C27.861 15.965 28 16.716 28 17.5V22.04C28 22.67 27.87 23.3 27.61 23.88L25.09 29.77C25.04 29.91 24.9 30 24.75 30H22.57C22.3 30 22.12 29.72 22.24 29.48L23.54 26.45C23.66 26.18 23.6 25.87 23.39 25.66L20.98 23.25C20.82 23.09 16.681 20.71 16.451 20.71L13.01 23V29.62C13.01 29.83 12.84 30 12.63 30H10.38C10.17 30 10 29.83 10 29.63V22.98L8.026 19.002L6.02 17C4.95383 17 3.93133 16.5764 3.17743 15.8225C2.42353 15.0686 2 14.0461 2 12.98V12.76C2 12.34 2.34 12 2.76 12C3.01 12 3.23 11.82 3.28 11.57C3.66 9.61997 5.13 7.72997 7 7.29997V4.58997C7 4.20997 7.47 4.03997 7.72 4.31997L11.03 8.00597L10.768 8.98597L12.539 9.99397C12.691 10.314 12.803 10.647 12.883 11L12.237 11.996L13.01 13.011V13.42C13.01 13.87 13.48 14.17 13.89 13.97L14.01 13.912L15.075 14.306L15.989 12.949L17.019 12.449L17.993 12.761L18.968 11.51C19.298 11.37 19.641 11.258 19.991 11.176L20.948 12.362L21.95 11.015C22.8518 11.0769 23.7307 11.3266 24.5304 11.748C25.3301 12.1694 26.033 12.7532 26.594 13.462C27.4317 12.5948 27.9275 11.454 27.99 10.25C28.14 7.37997 25.84 4.99997 23 4.99997C22.62 4.99997 22.24 5.03997 21.88 5.12997C21.6788 5.1744 21.4688 5.15604 21.2783 5.07736C21.0879 4.99867 20.9262 4.86346 20.815 4.68997C20.812 4.68697 20.81 4.68497 20.81 4.67997C20.722 4.54762 20.6674 4.39586 20.6511 4.23776C20.6347 4.07966 20.657 3.91995 20.716 3.77237C20.775 3.62479 20.869 3.49377 20.9899 3.39057C21.1108 3.28738 21.255 3.2151 21.41 3.17997V3.17997Z" fill="#F3AD61"/>
<path d="M11.76 8.83L11.02 8H10C9.45 8 9 8.45 9 9C9 9.55 9.45 10 10 10H12.547C12.347 9.57 12.07 9.18 11.76 8.83ZM19.97 11.18C20.47 11.06 20.98 11 21.5 11C21.65 11 21.81 11.01 21.97 11.02V14.38C21.97 14.93 21.52 15.38 20.97 15.38C20.42 15.38 19.97 14.93 19.97 14.38V11.18ZM18.65 11.65L16.98 12.46V15.21C16.98 15.76 17.43 16.21 17.98 16.21C18.53 16.21 18.98 15.76 18.98 15.21V11.51C18.87 11.55 18.76 11.6 18.65 11.65V11.65ZM15 17.04C15.55 17.04 16 16.59 16 16.04V12.94L14 13.91V16.04C14 16.59 14.45 17.04 15 17.04ZM12.88 11C12.96 11.35 13 11.71 13 12.09V13H11.5C10.95 13 10.5 12.55 10.5 12C10.5 11.45 10.95 11 11.5 11H12.88V11Z" fill="#D3883E"/>
<path d="M8.72502 17.902C8.59544 17.6315 8.39188 17.4032 8.13792 17.2435C7.88396 17.0839 7.58998 16.9995 7.29002 17H6.02002V18.59C6.01977 19.6853 6.42715 20.7416 7.16285 21.5531C7.89854 22.3645 8.9099 22.8732 10 22.98V20.09L8.72502 17.902ZM16.64 20.15H13V23H20.36C20.59 23 20.81 23.09 20.97 23.25L19.47 21.47C18.77 20.63 17.73 20.15 16.64 20.15V20.15Z" fill="#FFDEA7"/>
<path d="M6.02 11.587C6.02 11.267 6.243 11.02 6.51 11.02C6.786 11.02 7 11.278 7 11.587V12.433C7 12.743 6.786 12.99 6.51 13C6.234 13 6.02 12.742 6.02 12.433V11.587ZM3.44 12C3.68 12 3.81 12.27 3.67 12.46L2.25 14.37C2.09 13.94 2 13.47 2 12.98V12.76C2 12.34 2.34 12 2.76 12H3.44Z" fill="#212121"/>
</svg>
