<svg width="32" height="32" viewBox="0 0 32 32" fill="none" xmlns="http://www.w3.org/2000/svg">
<path d="M13.3599 10.6602C13.55 9.52179 13.3911 8.35249 12.9043 7.30603C12.4174 6.25956 11.6253 5.3849 10.632 4.797C9.63878 4.20911 8.49091 3.9355 7.33927 4.01213C6.18763 4.08877 5.08613 4.51207 4.17954 5.22638C3.27296 5.9407 2.60373 6.91261 2.2598 8.01436C1.91588 9.11612 1.91336 10.2962 2.25258 11.3994C2.59181 12.5026 3.25689 13.4773 4.16042 14.1955C5.06395 14.9137 6.16363 15.3417 7.31494 15.4232C5.34494 17.8432 4.03094 20.5892 4.03094 22.5162C4.03094 27.0002 8.09394 29.9382 11.0939 29.9382C13.3509 29.9382 14.3639 29.5412 15.0719 29.2632C15.4519 29.1142 15.7439 29.0002 16.0939 29.0002C16.4769 29.0002 16.7769 29.1382 17.1479 29.3072C17.7449 29.5812 18.5249 29.9372 20.1249 29.9372C22.9529 29.9372 27.9529 27.8122 27.9529 22.5162C27.9529 20.6192 26.7329 17.8522 24.8299 15.4122C25.9682 15.3026 27.0476 14.8544 27.9286 14.1253C28.8096 13.3963 29.4519 12.4198 29.7725 11.3221C30.0931 10.2244 30.0773 9.05582 29.7271 7.96718C29.377 6.87854 28.7086 5.91984 27.8082 5.21484C26.9078 4.50984 25.8168 4.09091 24.6759 4.01213C23.5351 3.93335 22.3968 4.19834 21.408 4.77288C20.4193 5.34743 19.6254 6.20516 19.129 7.23534C18.6325 8.26552 18.4563 9.42087 18.6229 10.5522C17.812 10.2559 16.9563 10.101 16.0929 10.0942C15.1889 10.0942 14.2689 10.2992 13.3599 10.6602V10.6602Z" fill="#F3AD61"/>
<path d="M6.85987 13.8752C7.42552 13.8839 7.98724 13.78 8.51234 13.5695C9.03745 13.359 9.51544 13.0462 9.91852 12.6493C10.3216 12.2523 10.6417 11.7792 10.8602 11.2574C11.0787 10.7355 11.1912 10.1755 11.1912 9.60975C11.1912 9.04403 11.0787 8.48397 10.8602 7.96215C10.6417 7.44033 10.3216 6.96718 9.91852 6.57023C9.51544 6.17328 9.03745 5.86047 8.51234 5.64999C7.98724 5.43952 7.42552 5.33559 6.85987 5.34425C5.7399 5.3614 4.6716 5.81834 3.88566 6.61641C3.09971 7.41448 2.65918 8.48965 2.65918 9.60975C2.65918 10.7299 3.09971 11.805 3.88566 12.6031C4.6716 13.4012 5.7399 13.8581 6.85987 13.8752V13.8752ZM25.1099 13.8752C25.6755 13.8839 26.2372 13.78 26.7623 13.5695C27.2874 13.359 27.7654 13.0462 28.1685 12.6493C28.5716 12.2523 28.8917 11.7792 29.1102 11.2574C29.3287 10.7355 29.4412 10.1755 29.4412 9.60975C29.4412 9.04403 29.3287 8.48397 29.1102 7.96215C28.8917 7.44033 28.5716 6.96718 28.1685 6.57023C27.7654 6.17328 27.2874 5.86047 26.7623 5.64999C26.2372 5.43952 25.6755 5.33559 25.1099 5.34425C23.9899 5.3614 22.9216 5.81834 22.1357 6.61641C21.3497 7.41448 20.9092 8.48965 20.9092 9.60975C20.9092 10.7299 21.3497 11.805 22.1357 12.6031C22.9216 13.4012 23.9899 13.8581 25.1099 13.8752V13.8752Z" fill="#FF8687"/>
<path d="M12 17.9692C11.7348 17.9692 11.4804 18.0746 11.2929 18.2621C11.1054 18.4497 11 18.704 11 18.9692V19.9692C11 20.2345 11.1054 20.4888 11.2929 20.6763C11.4804 20.8639 11.7348 20.9692 12 20.9692C12.2652 20.9692 12.5196 20.8639 12.7071 20.6763C12.8946 20.4888 13 20.2345 13 19.9692V18.9692C13 18.704 12.8946 18.4497 12.7071 18.2621C12.5196 18.0746 12.2652 17.9692 12 17.9692ZM20 17.9692C19.7348 17.9692 19.4804 18.0746 19.2929 18.2621C19.1054 18.4497 19 18.704 19 18.9692V19.9692C19 20.2345 19.1054 20.4888 19.2929 20.6763C19.4804 20.8639 19.7348 20.9692 20 20.9692C20.2652 20.9692 20.5196 20.8639 20.7071 20.6763C20.8946 20.4888 21 20.2345 21 19.9692V18.9692C21 18.704 20.8946 18.4497 20.7071 18.2621C20.5196 18.0746 20.2652 17.9692 20 17.9692Z" fill="#1C1C1C"/>
<path d="M17.5858 22.6402C17.5858 23.1282 16.6558 24.3442 16.0078 24.3442C15.3138 24.3442 14.4138 23.2342 14.4138 22.6412C14.4138 22.0472 15.1168 21.9922 16.0078 21.9922C16.8978 21.9922 17.5858 22.0322 17.5858 22.6412V22.6402Z" fill="#F70A8D"/>
<path d="M15.9999 26.395C15.6039 26.95 15.0499 27.223 14.4649 27.182C13.6329 27.125 12.9349 26.412 13.0029 25.449C13.0162 25.3199 13.0792 25.2011 13.1786 25.1177C13.2779 25.0342 13.4058 24.9926 13.5352 25.0017C13.6647 25.0108 13.7855 25.0698 13.8722 25.1664C13.9589 25.2629 14.0047 25.3893 13.9999 25.519C13.9719 25.917 14.2399 26.164 14.5339 26.185C14.7809 26.202 15.2579 26.044 15.4909 25.113C15.5189 25.0009 15.585 24.9019 15.6778 24.833C15.7706 24.7641 15.8844 24.7295 15.9999 24.735C16.1155 24.7292 16.2295 24.7637 16.3226 24.8327C16.4156 24.9016 16.4818 25.0007 16.5099 25.113C16.7409 26.043 17.2169 26.196 17.4619 26.177C17.7579 26.155 18.0279 25.903 17.9999 25.504C17.993 25.4373 17.9996 25.3699 18.0192 25.3058C18.0389 25.2417 18.0713 25.1822 18.1144 25.1309C18.1575 25.0795 18.2106 25.0374 18.2703 25.007C18.3301 24.9765 18.3953 24.9584 18.4622 24.9538C18.5291 24.9491 18.5962 24.9579 18.6596 24.9796C18.7231 25.0014 18.7814 25.0357 18.8313 25.0805C18.8812 25.1253 18.9216 25.1797 18.95 25.2405C18.9785 25.3012 18.9944 25.367 18.9969 25.434C19.0649 26.394 18.3689 27.111 17.5389 27.174C16.9519 27.219 16.3969 26.948 15.9999 26.395V26.395Z" fill="#1C1C1C"/>
</svg>
