<svg width="512" height="512" viewBox="0 0 512 512" fill="none" xmlns="http://www.w3.org/2000/svg">
<path d="M289.94 256.001L384.94 161.001C389.449 156.5 391.985 150.392 391.99 144.022C391.996 137.651 389.471 131.539 384.97 127.031C380.469 122.522 374.362 119.986 367.991 119.98C361.62 119.975 355.509 122.5 351 127.001L256 222.001L161 127.001C156.491 122.492 150.376 119.959 144 119.959C137.624 119.959 131.509 122.492 127 127.001C122.491 131.509 119.958 137.624 119.958 144.001C119.958 150.377 122.491 156.492 127 161.001L222 256.001L127 351.001C122.491 355.509 119.958 361.624 119.958 368.001C119.958 374.377 122.491 380.492 127 385.001C131.509 389.509 137.624 392.042 144 392.042C150.376 392.042 156.491 389.509 161 385.001L256 290.001L351 385.001C355.509 389.509 361.624 392.042 368 392.042C374.376 392.042 380.491 389.509 385 385.001C389.509 380.492 392.042 374.377 392.042 368.001C392.042 361.624 389.509 355.509 385 351.001L289.94 256.001Z" fill="white"/>
</svg>
