<svg width="157" height="37" viewBox="0 0 157 37" fill="none" xmlns="http://www.w3.org/2000/svg">
<path d="M6.93754 18.4998C9.06614 18.4998 10.7917 16.7743 10.7917 14.6457C10.7917 12.5171 9.06614 10.7915 6.93754 10.7915C4.80894 10.7915 3.08337 12.5171 3.08337 14.6457C3.08337 16.7743 4.80894 18.4998 6.93754 18.4998Z" fill="#ECA25E"/>
<path d="M13.875 12.3333C16.0036 12.3333 17.7292 10.6078 17.7292 8.47917C17.7292 6.35057 16.0036 4.625 13.875 4.625C11.7464 4.625 10.0209 6.35057 10.0209 8.47917C10.0209 10.6078 11.7464 12.3333 13.875 12.3333Z" fill="#ECA25E"/>
<path d="M23.125 12.3333C25.2536 12.3333 26.9792 10.6078 26.9792 8.47917C26.9792 6.35057 25.2536 4.625 23.125 4.625C20.9964 4.625 19.2709 6.35057 19.2709 8.47917C19.2709 10.6078 20.9964 12.3333 23.125 12.3333Z" fill="#ECA25E"/>
<path d="M30.0625 18.4998C32.1911 18.4998 33.9167 16.7743 33.9167 14.6457C33.9167 12.5171 32.1911 10.7915 30.0625 10.7915C27.9339 10.7915 26.2084 12.5171 26.2084 14.6457C26.2084 16.7743 27.9339 18.4998 30.0625 18.4998Z" fill="#ECA25E"/>
<path d="M26.7325 22.9092C25.3912 21.3367 24.2658 19.9954 22.9091 18.4229C22.2 17.5904 21.2904 16.7579 20.2112 16.3879C20.0416 16.3263 19.872 16.28 19.7025 16.2492C19.317 16.1875 18.9008 16.1875 18.5 16.1875C18.0991 16.1875 17.6829 16.1875 17.282 16.2646C17.1125 16.2954 16.9429 16.3417 16.7733 16.4033C15.6941 16.7733 14.8 17.6058 14.0754 18.4383C12.7341 20.0108 11.6087 21.3521 10.252 22.9246C8.23246 24.9442 5.75037 27.1796 6.21287 30.3092C6.65996 31.8817 7.78537 33.4387 9.80496 33.8858C10.9304 34.1171 14.5225 33.2075 18.3458 33.2075H18.6233C22.4466 33.2075 26.0387 34.1017 27.1641 33.8858C29.1837 33.4387 30.3091 31.8662 30.7562 30.3092C31.2341 27.1642 28.752 24.9287 26.7325 22.9092V22.9092Z" fill="#ECA25E"/>
<path d="M44.076 31L37.464 10.758H41.379L44.482 20.618L46.28 27.346H46.367L48.136 20.618L51.239 10.758H55.038L48.426 31H44.076ZM62.767 31.348C61.6456 31.348 60.6403 31.1643 59.751 30.797C58.881 30.4103 58.1366 29.8787 57.518 29.202C56.9186 28.506 56.4546 27.6747 56.126 26.708C55.7973 25.722 55.633 24.62 55.633 23.402C55.633 22.2033 55.7876 21.1207 56.097 20.154C56.4256 19.1873 56.8896 18.3657 57.489 17.689C58.0883 16.993 58.823 16.4613 59.693 16.094C60.563 15.7073 61.549 15.514 62.651 15.514C63.8303 15.514 64.855 15.717 65.725 16.123C66.595 16.529 67.3103 17.08 67.871 17.776C68.4316 18.472 68.8473 19.284 69.118 20.212C69.408 21.1207 69.553 22.097 69.553 23.141V24.359H59.49V24.736C59.49 25.838 59.7993 26.7273 60.418 27.404C61.0366 28.0613 61.955 28.39 63.173 28.39C64.101 28.39 64.855 28.1967 65.435 27.81C66.0343 27.4233 66.566 26.9303 67.03 26.331L69.031 28.564C68.4123 29.434 67.5616 30.1203 66.479 30.623C65.4156 31.1063 64.1783 31.348 62.767 31.348ZM62.709 18.298C61.723 18.298 60.94 18.6267 60.36 19.284C59.78 19.9413 59.49 20.792 59.49 21.836V22.068H65.696V21.807C65.696 20.763 65.435 19.922 64.913 19.284C64.4103 18.6267 63.6756 18.298 62.709 18.298ZM77.5459 31C76.2699 31 75.2935 30.6713 74.6169 30.014C73.9595 29.3373 73.6309 28.3803 73.6309 27.143V18.82H71.3979V15.862H72.5579C73.1185 15.862 73.4955 15.7363 73.6889 15.485C73.9015 15.2143 74.0079 14.818 74.0079 14.296V11.715H77.3429V15.862H80.4459V18.82H77.3429V28.042H80.2139V31H77.5459ZM91.7565 31.348C90.4225 31.348 89.2142 31.1353 88.1315 30.71C87.0682 30.2653 86.1499 29.608 85.3765 28.738C84.6225 27.868 84.0425 26.795 83.6365 25.519C83.2305 24.2237 83.0275 22.7253 83.0275 21.024C83.0275 19.3227 83.2305 17.8147 83.6365 16.5C84.0425 15.166 84.6225 14.0543 85.3765 13.165C86.1499 12.2563 87.0682 11.57 88.1315 11.106C89.2142 10.642 90.4225 10.41 91.7565 10.41C93.5739 10.41 95.0819 10.7967 96.2805 11.57C97.4792 12.3433 98.4362 13.513 99.1515 15.079L95.8745 16.819C95.5845 15.9103 95.1109 15.1853 94.4535 14.644C93.7962 14.0833 92.8972 13.803 91.7565 13.803C90.3259 13.803 89.1852 14.2863 88.3345 15.253C87.5032 16.2197 87.0875 17.573 87.0875 19.313V22.503C87.0875 24.2623 87.5032 25.6157 88.3345 26.563C89.1852 27.491 90.3259 27.955 91.7565 27.955C92.8972 27.955 93.8252 27.6457 94.5405 27.027C95.2752 26.4083 95.8069 25.6447 96.1355 24.736L99.2385 26.563C98.5039 28.071 97.5275 29.2503 96.3095 30.101C95.0915 30.9323 93.5739 31.348 91.7565 31.348ZM105.984 31C104.708 31 103.77 30.681 103.171 30.043C102.572 29.405 102.272 28.506 102.272 27.346V9.54H105.984V28.042H107.985V31H105.984ZM112.652 13.658C111.879 13.658 111.318 13.484 110.97 13.136C110.642 12.788 110.477 12.3433 110.477 11.802V11.222C110.477 10.6807 110.642 10.236 110.97 9.888C111.318 9.54 111.879 9.366 112.652 9.366C113.406 9.366 113.957 9.54 114.305 9.888C114.653 10.236 114.827 10.6807 114.827 11.222V11.802C114.827 12.3433 114.653 12.788 114.305 13.136C113.957 13.484 113.406 13.658 112.652 13.658ZM110.796 15.862H114.508V31H110.796V15.862ZM118.811 31V15.862H122.523V18.385H122.668C122.977 17.573 123.461 16.8963 124.118 16.355C124.795 15.7943 125.723 15.514 126.902 15.514C128.468 15.514 129.667 16.0263 130.498 17.051C131.329 18.0757 131.745 19.5353 131.745 21.43V31H128.033V21.807C128.033 20.7243 127.84 19.9123 127.453 19.371C127.066 18.8297 126.428 18.559 125.539 18.559C125.152 18.559 124.775 18.617 124.408 18.733C124.06 18.8297 123.741 18.9843 123.451 19.197C123.18 19.3903 122.958 19.6417 122.784 19.951C122.61 20.241 122.523 20.589 122.523 20.995V31H118.811ZM137.716 13.658C136.943 13.658 136.382 13.484 136.034 13.136C135.705 12.788 135.541 12.3433 135.541 11.802V11.222C135.541 10.6807 135.705 10.236 136.034 9.888C136.382 9.54 136.943 9.366 137.716 9.366C138.47 9.366 139.021 9.54 139.369 9.888C139.717 10.236 139.891 10.6807 139.891 11.222V11.802C139.891 12.3433 139.717 12.788 139.369 13.136C139.021 13.484 138.47 13.658 137.716 13.658ZM135.86 15.862H139.572V31H135.86V15.862ZM149.849 31.348C148.727 31.348 147.732 31.1643 146.862 30.797C145.992 30.4297 145.257 29.898 144.658 29.202C144.078 28.506 143.633 27.6747 143.324 26.708C143.014 25.722 142.86 24.62 142.86 23.402C142.86 22.184 143.014 21.0917 143.324 20.125C143.633 19.1583 144.078 18.3367 144.658 17.66C145.257 16.964 145.992 16.4323 146.862 16.065C147.732 15.6977 148.727 15.514 149.849 15.514C151.376 15.514 152.633 15.8523 153.619 16.529C154.624 17.2057 155.349 18.1433 155.794 19.342L152.749 20.705C152.575 20.067 152.246 19.545 151.763 19.139C151.299 18.7137 150.661 18.501 149.849 18.501C148.805 18.501 148.022 18.8297 147.5 19.487C146.997 20.1443 146.746 21.0047 146.746 22.068V24.823C146.746 25.8863 146.997 26.7467 147.5 27.404C148.022 28.042 148.805 28.361 149.849 28.361C150.738 28.361 151.424 28.1387 151.908 27.694C152.391 27.23 152.768 26.6597 153.039 25.983L155.881 27.346C155.378 28.68 154.614 29.6853 153.59 30.362C152.565 31.0193 151.318 31.348 149.849 31.348Z" fill="#0496FF"/>
</svg>
