<svg width="100" height="100" viewBox="0 0 100 100" fill="none" xmlns="http://www.w3.org/2000/svg">
<g clip-path="url(#clip0_5913_11202)">
<path d="M37.18 0C27.65 0 18.119 3.624 10.87 10.871C-3.62497 25.366 -3.62497 48.993 10.87 63.488C24.44 77.057 45.97 77.855 60.557 66.016L64.133 69.592C63.9307 70.3192 63.8837 71.0189 63.9953 71.6427C64.1068 72.2666 64.3742 72.7996 64.779 73.205L90.731 99.156C91.473 99.8977 92.6284 100.165 93.943 99.8997C95.2576 99.6341 96.6238 98.8573 97.741 97.74C98.8583 96.6226 99.635 95.2563 99.9004 93.9417C100.166 92.6271 99.898 91.4718 99.156 90.73L73.206 64.78C72.8006 64.3745 72.2671 64.1066 71.6428 63.9949C71.0184 63.8832 70.318 63.9303 69.59 64.133L66.014 60.557C77.854 45.969 77.057 24.439 63.488 10.871C56.241 3.624 46.71 0.001 37.18 0.001V0ZM37.18 8.217C44.577 8.217 51.975 11.051 57.643 16.719C60.3376 19.4019 62.4758 22.5906 63.9347 26.1021C65.3937 29.6135 66.1447 33.3785 66.1447 37.181C66.1447 40.9835 65.3937 44.7485 63.9347 48.2599C62.4758 51.7714 60.3376 54.9601 57.643 57.643C54.9601 60.3376 51.7714 62.4757 48.26 63.9347C44.7485 65.3936 40.9835 66.1447 37.181 66.1447C33.3786 66.1447 29.6135 65.3936 26.1021 63.9347C22.5906 62.4757 19.4019 60.3376 16.719 57.643C14.0244 54.9601 11.8863 51.7714 10.4273 48.2599C8.96839 44.7485 8.21735 40.9835 8.21735 37.181C8.21735 33.3785 8.96839 29.6135 10.4273 26.1021C11.8863 22.5906 14.0244 19.4019 16.719 16.719C22.387 11.051 29.783 8.217 37.179 8.217H37.18Z" fill="white"/>
</g>
<defs>
<clipPath id="clip0_5913_11202">
<rect width="100" height="100" fill="white"/>
</clipPath>
</defs>
</svg>
